<svg id="visual" viewBox="0 0 900 600" width="900" height="600" xmlns="http://www.w3.org/2000/svg" xmlns:xlink="http://www.w3.org/1999/xlink" version="1.1"><path d="M0 115L30 109C60 103 120 91 180 86C240 81 300 83 360 80C420 77 480 69 540 65C600 61 660 61 720 70C780 79 840 97 870 106L900 115L900 0L870 0C840 0 780 0 720 0C660 0 600 0 540 0C480 0 420 0 360 0C300 0 240 0 180 0C120 0 60 0 30 0L0 0Z" fill="#6198ff"></path><path d="M0 289L30 280C60 271 120 253 180 248C240 243 300 251 360 242C420 233 480 207 540 211C600 215 660 249 720 270C780 291 840 299 870 303L900 307L900 113L870 104C840 95 780 77 720 68C660 59 600 59 540 63C480 67 420 75 360 78C300 81 240 79 180 84C120 89 60 101 30 107L0 113Z" fill="#3c80ff"></path><path d="M0 451L30 449C60 447 120 443 180 443C240 443 300 447 360 436C420 425 480 399 540 392C600 385 660 397 720 405C780 413 840 417 870 419L900 421L900 305L870 301C840 297 780 289 720 268C660 247 600 213 540 209C480 205 420 231 360 240C300 249 240 241 180 246C120 251 60 269 30 278L0 287Z" fill="#0066ff"></path><path d="M0 547L30 535C60 523 120 499 180 495C240 491 300 507 360 503C420 499 480 475 540 473C600 471 660 491 720 498C780 505 840 499 870 496L900 493L900 419L870 417C840 415 780 411 720 403C660 395 600 383 540 390C480 397 420 423 360 434C300 445 240 441 180 441C120 441 60 445 30 447L0 449Z" fill="#0059dd"></path><path d="M0 601L30 601C60 601 120 601 180 601C240 601 300 601 360 601C420 601 480 601 540 601C600 601 660 601 720 601C780 601 840 601 870 601L900 601L900 491L870 494C840 497 780 503 720 496C660 489 600 469 540 471C480 473 420 497 360 501C300 505 240 489 180 493C120 497 60 521 30 533L0 545Z" fill="#004cbb"></path></svg>